<mxfile host="app.diagrams.net" modified="2023-03-30T19:03:48.321Z" agent="Mozilla/5.0 (X11; Linux x86_64) AppleWebKit/537.36 (KHTML, like Gecko) Chrome/111.0.0.0 Safari/537.36" etag="eAFqWQp9aqPYkow9rLCk" version="21.1.2" type="device">
  <diagram name="Page-1" id="CysGs1yPkardD1Fw-jYL">
    <mxGraphModel dx="1195" dy="644" grid="1" gridSize="10" guides="1" tooltips="1" connect="1" arrows="1" fold="1" page="1" pageScale="1" pageWidth="850" pageHeight="1100" background="#FFFFFF" math="0" shadow="0">
      <root>
        <mxCell id="0" />
        <mxCell id="1" parent="0" />
        <mxCell id="NGAGrTrnH160TQQsXjLs-4" value="PROVEEDOR" style="rounded=0;whiteSpace=wrap;html=1;" vertex="1" parent="1">
          <mxGeometry x="330" y="140" width="120" height="60" as="geometry" />
        </mxCell>
        <mxCell id="NGAGrTrnH160TQQsXjLs-6" style="edgeStyle=orthogonalEdgeStyle;rounded=0;orthogonalLoop=1;jettySize=auto;html=1;endArrow=none;endFill=0;" edge="1" parent="1" source="NGAGrTrnH160TQQsXjLs-7" target="NGAGrTrnH160TQQsXjLs-4">
          <mxGeometry relative="1" as="geometry" />
        </mxCell>
        <mxCell id="NGAGrTrnH160TQQsXjLs-7" value="SUMINISTRA" style="rhombus;whiteSpace=wrap;html=1;" vertex="1" parent="1">
          <mxGeometry x="350" y="240" width="80" height="80" as="geometry" />
        </mxCell>
        <mxCell id="NGAGrTrnH160TQQsXjLs-8" style="edgeStyle=orthogonalEdgeStyle;rounded=0;orthogonalLoop=1;jettySize=auto;html=1;endArrow=none;endFill=0;" edge="1" parent="1" source="NGAGrTrnH160TQQsXjLs-10" target="NGAGrTrnH160TQQsXjLs-7">
          <mxGeometry relative="1" as="geometry" />
        </mxCell>
        <mxCell id="NGAGrTrnH160TQQsXjLs-9" style="edgeStyle=orthogonalEdgeStyle;orthogonalLoop=1;jettySize=auto;html=1;curved=1;" edge="1" parent="1" source="NGAGrTrnH160TQQsXjLs-10" target="NGAGrTrnH160TQQsXjLs-21">
          <mxGeometry relative="1" as="geometry" />
        </mxCell>
        <mxCell id="NGAGrTrnH160TQQsXjLs-62" style="edgeStyle=orthogonalEdgeStyle;orthogonalLoop=1;jettySize=auto;html=1;curved=1;" edge="1" parent="1" source="NGAGrTrnH160TQQsXjLs-10" target="NGAGrTrnH160TQQsXjLs-61">
          <mxGeometry relative="1" as="geometry" />
        </mxCell>
        <mxCell id="NGAGrTrnH160TQQsXjLs-64" style="edgeStyle=orthogonalEdgeStyle;orthogonalLoop=1;jettySize=auto;html=1;curved=1;entryX=1;entryY=0.5;entryDx=0;entryDy=0;" edge="1" parent="1" source="NGAGrTrnH160TQQsXjLs-10" target="NGAGrTrnH160TQQsXjLs-63">
          <mxGeometry relative="1" as="geometry">
            <mxPoint x="305" y="470" as="targetPoint" />
          </mxGeometry>
        </mxCell>
        <mxCell id="NGAGrTrnH160TQQsXjLs-10" value="PRODUCTO" style="rounded=0;whiteSpace=wrap;html=1;" vertex="1" parent="1">
          <mxGeometry x="330" y="360" width="120" height="60" as="geometry" />
        </mxCell>
        <mxCell id="NGAGrTrnH160TQQsXjLs-11" value="1" style="text;html=1;align=center;verticalAlign=middle;resizable=0;points=[];autosize=1;strokeColor=none;fillColor=none;" vertex="1" parent="1">
          <mxGeometry x="385" y="200" width="30" height="30" as="geometry" />
        </mxCell>
        <mxCell id="NGAGrTrnH160TQQsXjLs-12" value="N" style="text;html=1;align=center;verticalAlign=middle;resizable=0;points=[];autosize=1;strokeColor=none;fillColor=none;" vertex="1" parent="1">
          <mxGeometry x="385" y="330" width="30" height="30" as="geometry" />
        </mxCell>
        <mxCell id="NGAGrTrnH160TQQsXjLs-21" value="&lt;u&gt;CODIGO&lt;/u&gt;" style="ellipse;whiteSpace=wrap;html=1;" vertex="1" parent="1">
          <mxGeometry x="160" y="310" width="120" height="50" as="geometry" />
        </mxCell>
        <mxCell id="NGAGrTrnH160TQQsXjLs-29" style="edgeStyle=orthogonalEdgeStyle;rounded=0;orthogonalLoop=1;jettySize=auto;html=1;entryX=0.5;entryY=1;entryDx=0;entryDy=0;endArrow=none;endFill=0;" edge="1" parent="1" source="NGAGrTrnH160TQQsXjLs-30" target="NGAGrTrnH160TQQsXjLs-10">
          <mxGeometry relative="1" as="geometry" />
        </mxCell>
        <mxCell id="NGAGrTrnH160TQQsXjLs-30" value="COMPRA" style="rhombus;whiteSpace=wrap;html=1;" vertex="1" parent="1">
          <mxGeometry x="350" y="460" width="80" height="80" as="geometry" />
        </mxCell>
        <mxCell id="NGAGrTrnH160TQQsXjLs-31" value="M" style="text;html=1;align=center;verticalAlign=middle;resizable=0;points=[];autosize=1;strokeColor=none;fillColor=none;" vertex="1" parent="1">
          <mxGeometry x="385" y="415" width="30" height="30" as="geometry" />
        </mxCell>
        <mxCell id="NGAGrTrnH160TQQsXjLs-32" style="edgeStyle=orthogonalEdgeStyle;rounded=0;orthogonalLoop=1;jettySize=auto;html=1;entryX=0.5;entryY=1;entryDx=0;entryDy=0;endArrow=none;endFill=0;" edge="1" parent="1" source="NGAGrTrnH160TQQsXjLs-37" target="NGAGrTrnH160TQQsXjLs-30">
          <mxGeometry relative="1" as="geometry" />
        </mxCell>
        <mxCell id="NGAGrTrnH160TQQsXjLs-33" style="edgeStyle=orthogonalEdgeStyle;orthogonalLoop=1;jettySize=auto;html=1;entryX=0;entryY=0.5;entryDx=0;entryDy=0;curved=1;" edge="1" parent="1" source="NGAGrTrnH160TQQsXjLs-37" target="NGAGrTrnH160TQQsXjLs-40">
          <mxGeometry relative="1" as="geometry" />
        </mxCell>
        <mxCell id="NGAGrTrnH160TQQsXjLs-34" style="edgeStyle=orthogonalEdgeStyle;orthogonalLoop=1;jettySize=auto;html=1;entryX=0;entryY=0.5;entryDx=0;entryDy=0;curved=1;" edge="1" parent="1" source="NGAGrTrnH160TQQsXjLs-37" target="NGAGrTrnH160TQQsXjLs-39">
          <mxGeometry relative="1" as="geometry" />
        </mxCell>
        <mxCell id="NGAGrTrnH160TQQsXjLs-35" style="edgeStyle=orthogonalEdgeStyle;orthogonalLoop=1;jettySize=auto;html=1;entryX=0;entryY=0.5;entryDx=0;entryDy=0;curved=1;" edge="1" parent="1" source="NGAGrTrnH160TQQsXjLs-37" target="NGAGrTrnH160TQQsXjLs-41">
          <mxGeometry relative="1" as="geometry" />
        </mxCell>
        <mxCell id="NGAGrTrnH160TQQsXjLs-36" style="edgeStyle=orthogonalEdgeStyle;orthogonalLoop=1;jettySize=auto;html=1;entryX=0;entryY=0.5;entryDx=0;entryDy=0;curved=1;" edge="1" parent="1" source="NGAGrTrnH160TQQsXjLs-37" target="NGAGrTrnH160TQQsXjLs-42">
          <mxGeometry relative="1" as="geometry" />
        </mxCell>
        <mxCell id="NGAGrTrnH160TQQsXjLs-60" style="edgeStyle=orthogonalEdgeStyle;orthogonalLoop=1;jettySize=auto;html=1;entryX=0;entryY=0.5;entryDx=0;entryDy=0;curved=1;" edge="1" parent="1" source="NGAGrTrnH160TQQsXjLs-37" target="NGAGrTrnH160TQQsXjLs-59">
          <mxGeometry relative="1" as="geometry" />
        </mxCell>
        <mxCell id="NGAGrTrnH160TQQsXjLs-37" value="CLIENTE" style="rounded=0;whiteSpace=wrap;html=1;" vertex="1" parent="1">
          <mxGeometry x="330" y="580" width="120" height="60" as="geometry" />
        </mxCell>
        <mxCell id="NGAGrTrnH160TQQsXjLs-38" value="N" style="text;html=1;align=center;verticalAlign=middle;resizable=0;points=[];autosize=1;strokeColor=none;fillColor=none;" vertex="1" parent="1">
          <mxGeometry x="385" y="550" width="30" height="30" as="geometry" />
        </mxCell>
        <mxCell id="NGAGrTrnH160TQQsXjLs-39" value="NOMBRE" style="ellipse;whiteSpace=wrap;html=1;" vertex="1" parent="1">
          <mxGeometry x="510" y="527.5" width="120" height="50" as="geometry" />
        </mxCell>
        <mxCell id="NGAGrTrnH160TQQsXjLs-40" value="&lt;u&gt;DNI&lt;/u&gt;" style="ellipse;whiteSpace=wrap;html=1;" vertex="1" parent="1">
          <mxGeometry x="510" y="470" width="120" height="50" as="geometry" />
        </mxCell>
        <mxCell id="NGAGrTrnH160TQQsXjLs-41" value="APELLIDO" style="ellipse;whiteSpace=wrap;html=1;" vertex="1" parent="1">
          <mxGeometry x="510" y="585" width="120" height="50" as="geometry" />
        </mxCell>
        <mxCell id="NGAGrTrnH160TQQsXjLs-42" value="DIRECCION" style="ellipse;whiteSpace=wrap;html=1;" vertex="1" parent="1">
          <mxGeometry x="510" y="642.5" width="120" height="50" as="geometry" />
        </mxCell>
        <mxCell id="NGAGrTrnH160TQQsXjLs-43" value="PROVEEDOR" style="swimlane;fontStyle=0;childLayout=stackLayout;horizontal=1;startSize=30;horizontalStack=0;resizeParent=1;resizeParentMax=0;resizeLast=0;collapsible=1;marginBottom=0;whiteSpace=wrap;html=1;" vertex="1" parent="1">
          <mxGeometry y="760" width="80" height="120" as="geometry" />
        </mxCell>
        <mxCell id="NGAGrTrnH160TQQsXjLs-44" value="#CUIT" style="text;strokeColor=none;fillColor=none;align=left;verticalAlign=middle;spacingLeft=4;spacingRight=4;overflow=hidden;points=[[0,0.5],[1,0.5]];portConstraint=eastwest;rotatable=0;whiteSpace=wrap;html=1;" vertex="1" parent="NGAGrTrnH160TQQsXjLs-43">
          <mxGeometry y="30" width="80" height="30" as="geometry" />
        </mxCell>
        <mxCell id="NGAGrTrnH160TQQsXjLs-45" value="NOMBRE" style="text;strokeColor=none;fillColor=none;align=left;verticalAlign=middle;spacingLeft=4;spacingRight=4;overflow=hidden;points=[[0,0.5],[1,0.5]];portConstraint=eastwest;rotatable=0;whiteSpace=wrap;html=1;" vertex="1" parent="NGAGrTrnH160TQQsXjLs-43">
          <mxGeometry y="60" width="80" height="30" as="geometry" />
        </mxCell>
        <mxCell id="NGAGrTrnH160TQQsXjLs-46" value="DIRECCION" style="text;strokeColor=none;fillColor=none;align=left;verticalAlign=middle;spacingLeft=4;spacingRight=4;overflow=hidden;points=[[0,0.5],[1,0.5]];portConstraint=eastwest;rotatable=0;whiteSpace=wrap;html=1;" vertex="1" parent="NGAGrTrnH160TQQsXjLs-43">
          <mxGeometry y="90" width="80" height="30" as="geometry" />
        </mxCell>
        <mxCell id="NGAGrTrnH160TQQsXjLs-47" value="PRODUCTO" style="swimlane;fontStyle=0;childLayout=stackLayout;horizontal=1;startSize=30;horizontalStack=0;resizeParent=1;resizeParentMax=0;resizeLast=0;collapsible=1;marginBottom=0;whiteSpace=wrap;html=1;" vertex="1" parent="1">
          <mxGeometry x="80" y="760" width="160" height="150" as="geometry">
            <mxRectangle x="150" y="760" width="110" height="30" as="alternateBounds" />
          </mxGeometry>
        </mxCell>
        <mxCell id="NGAGrTrnH160TQQsXjLs-48" value="#CODIGO" style="text;strokeColor=none;fillColor=none;align=left;verticalAlign=middle;spacingLeft=4;spacingRight=4;overflow=hidden;points=[[0,0.5],[1,0.5]];portConstraint=eastwest;rotatable=0;whiteSpace=wrap;html=1;" vertex="1" parent="NGAGrTrnH160TQQsXjLs-47">
          <mxGeometry y="30" width="160" height="30" as="geometry" />
        </mxCell>
        <mxCell id="NGAGrTrnH160TQQsXjLs-72" value="NOMBRE" style="text;strokeColor=none;fillColor=none;align=left;verticalAlign=middle;spacingLeft=4;spacingRight=4;overflow=hidden;points=[[0,0.5],[1,0.5]];portConstraint=eastwest;rotatable=0;whiteSpace=wrap;html=1;" vertex="1" parent="NGAGrTrnH160TQQsXjLs-47">
          <mxGeometry y="60" width="160" height="30" as="geometry" />
        </mxCell>
        <mxCell id="NGAGrTrnH160TQQsXjLs-74" value="PRECIO" style="text;strokeColor=none;fillColor=none;align=left;verticalAlign=middle;spacingLeft=4;spacingRight=4;overflow=hidden;points=[[0,0.5],[1,0.5]];portConstraint=eastwest;rotatable=0;whiteSpace=wrap;html=1;" vertex="1" parent="NGAGrTrnH160TQQsXjLs-47">
          <mxGeometry y="90" width="160" height="30" as="geometry" />
        </mxCell>
        <mxCell id="NGAGrTrnH160TQQsXjLs-75" value="CUIT (PK - PROVEEDOR)" style="text;strokeColor=none;fillColor=none;align=left;verticalAlign=middle;spacingLeft=4;spacingRight=4;overflow=hidden;points=[[0,0.5],[1,0.5]];portConstraint=eastwest;rotatable=0;whiteSpace=wrap;html=1;" vertex="1" parent="NGAGrTrnH160TQQsXjLs-47">
          <mxGeometry y="120" width="160" height="30" as="geometry" />
        </mxCell>
        <mxCell id="NGAGrTrnH160TQQsXjLs-51" value="COMPRA" style="swimlane;fontStyle=0;childLayout=stackLayout;horizontal=1;startSize=30;horizontalStack=0;resizeParent=1;resizeParentMax=0;resizeLast=0;collapsible=1;marginBottom=0;whiteSpace=wrap;html=1;" vertex="1" parent="1">
          <mxGeometry x="400" y="760" width="180" height="90" as="geometry" />
        </mxCell>
        <mxCell id="NGAGrTrnH160TQQsXjLs-52" value="#DNI (FK - CLIENTE)" style="text;strokeColor=none;fillColor=none;align=left;verticalAlign=middle;spacingLeft=4;spacingRight=4;overflow=hidden;points=[[0,0.5],[1,0.5]];portConstraint=eastwest;rotatable=0;whiteSpace=wrap;html=1;" vertex="1" parent="NGAGrTrnH160TQQsXjLs-51">
          <mxGeometry y="30" width="180" height="30" as="geometry" />
        </mxCell>
        <mxCell id="NGAGrTrnH160TQQsXjLs-82" value="#CODIGO (FK - PRODUCTO)" style="text;strokeColor=none;fillColor=none;align=left;verticalAlign=middle;spacingLeft=4;spacingRight=4;overflow=hidden;points=[[0,0.5],[1,0.5]];portConstraint=eastwest;rotatable=0;whiteSpace=wrap;html=1;" vertex="1" parent="NGAGrTrnH160TQQsXjLs-51">
          <mxGeometry y="60" width="180" height="30" as="geometry" />
        </mxCell>
        <mxCell id="NGAGrTrnH160TQQsXjLs-59" value="NACIMIENTO" style="ellipse;whiteSpace=wrap;html=1;" vertex="1" parent="1">
          <mxGeometry x="510" y="700" width="120" height="50" as="geometry" />
        </mxCell>
        <mxCell id="NGAGrTrnH160TQQsXjLs-61" value="NOMBRE" style="ellipse;whiteSpace=wrap;html=1;" vertex="1" parent="1">
          <mxGeometry x="160" y="365" width="120" height="50" as="geometry" />
        </mxCell>
        <mxCell id="NGAGrTrnH160TQQsXjLs-63" value="PRECIO" style="ellipse;whiteSpace=wrap;html=1;" vertex="1" parent="1">
          <mxGeometry x="160" y="420" width="120" height="50" as="geometry" />
        </mxCell>
        <mxCell id="NGAGrTrnH160TQQsXjLs-65" style="edgeStyle=orthogonalEdgeStyle;orthogonalLoop=1;jettySize=auto;html=1;entryX=0;entryY=0.5;entryDx=0;entryDy=0;curved=1;" edge="1" parent="1" target="NGAGrTrnH160TQQsXjLs-68">
          <mxGeometry relative="1" as="geometry">
            <mxPoint x="450" y="170" as="sourcePoint" />
          </mxGeometry>
        </mxCell>
        <mxCell id="NGAGrTrnH160TQQsXjLs-66" style="edgeStyle=orthogonalEdgeStyle;orthogonalLoop=1;jettySize=auto;html=1;entryX=0;entryY=0.5;entryDx=0;entryDy=0;curved=1;" edge="1" parent="1" target="NGAGrTrnH160TQQsXjLs-69">
          <mxGeometry relative="1" as="geometry">
            <mxPoint x="450" y="170" as="sourcePoint" />
          </mxGeometry>
        </mxCell>
        <mxCell id="NGAGrTrnH160TQQsXjLs-67" style="edgeStyle=orthogonalEdgeStyle;orthogonalLoop=1;jettySize=auto;html=1;entryX=0;entryY=0.5;entryDx=0;entryDy=0;curved=1;" edge="1" parent="1" target="NGAGrTrnH160TQQsXjLs-70">
          <mxGeometry relative="1" as="geometry">
            <mxPoint x="450" y="170" as="sourcePoint" />
          </mxGeometry>
        </mxCell>
        <mxCell id="NGAGrTrnH160TQQsXjLs-68" value="&lt;u&gt;CUIT&lt;/u&gt;" style="ellipse;whiteSpace=wrap;html=1;" vertex="1" parent="1">
          <mxGeometry x="510" y="87.5" width="120" height="50" as="geometry" />
        </mxCell>
        <mxCell id="NGAGrTrnH160TQQsXjLs-69" value="NOMBRE" style="ellipse;whiteSpace=wrap;html=1;" vertex="1" parent="1">
          <mxGeometry x="510" y="145" width="120" height="50" as="geometry" />
        </mxCell>
        <mxCell id="NGAGrTrnH160TQQsXjLs-70" value="DIRECCION" style="ellipse;whiteSpace=wrap;html=1;" vertex="1" parent="1">
          <mxGeometry x="510" y="202.5" width="120" height="50" as="geometry" />
        </mxCell>
        <mxCell id="NGAGrTrnH160TQQsXjLs-76" value="CLIENTE" style="swimlane;fontStyle=0;childLayout=stackLayout;horizontal=1;startSize=30;horizontalStack=0;resizeParent=1;resizeParentMax=0;resizeLast=0;collapsible=1;marginBottom=0;whiteSpace=wrap;html=1;" vertex="1" parent="1">
          <mxGeometry x="240" y="760" width="160" height="180" as="geometry">
            <mxRectangle x="150" y="760" width="110" height="30" as="alternateBounds" />
          </mxGeometry>
        </mxCell>
        <mxCell id="NGAGrTrnH160TQQsXjLs-77" value="#DNI" style="text;strokeColor=none;fillColor=none;align=left;verticalAlign=middle;spacingLeft=4;spacingRight=4;overflow=hidden;points=[[0,0.5],[1,0.5]];portConstraint=eastwest;rotatable=0;whiteSpace=wrap;html=1;" vertex="1" parent="NGAGrTrnH160TQQsXjLs-76">
          <mxGeometry y="30" width="160" height="30" as="geometry" />
        </mxCell>
        <mxCell id="NGAGrTrnH160TQQsXjLs-78" value="NOMBRE" style="text;strokeColor=none;fillColor=none;align=left;verticalAlign=middle;spacingLeft=4;spacingRight=4;overflow=hidden;points=[[0,0.5],[1,0.5]];portConstraint=eastwest;rotatable=0;whiteSpace=wrap;html=1;" vertex="1" parent="NGAGrTrnH160TQQsXjLs-76">
          <mxGeometry y="60" width="160" height="30" as="geometry" />
        </mxCell>
        <mxCell id="NGAGrTrnH160TQQsXjLs-79" value="APELLIDO" style="text;strokeColor=none;fillColor=none;align=left;verticalAlign=middle;spacingLeft=4;spacingRight=4;overflow=hidden;points=[[0,0.5],[1,0.5]];portConstraint=eastwest;rotatable=0;whiteSpace=wrap;html=1;" vertex="1" parent="NGAGrTrnH160TQQsXjLs-76">
          <mxGeometry y="90" width="160" height="30" as="geometry" />
        </mxCell>
        <mxCell id="NGAGrTrnH160TQQsXjLs-80" value="DIRECCION" style="text;strokeColor=none;fillColor=none;align=left;verticalAlign=middle;spacingLeft=4;spacingRight=4;overflow=hidden;points=[[0,0.5],[1,0.5]];portConstraint=eastwest;rotatable=0;whiteSpace=wrap;html=1;" vertex="1" parent="NGAGrTrnH160TQQsXjLs-76">
          <mxGeometry y="120" width="160" height="30" as="geometry" />
        </mxCell>
        <mxCell id="NGAGrTrnH160TQQsXjLs-81" value="NACIMIENTO" style="text;strokeColor=none;fillColor=none;align=left;verticalAlign=middle;spacingLeft=4;spacingRight=4;overflow=hidden;points=[[0,0.5],[1,0.5]];portConstraint=eastwest;rotatable=0;whiteSpace=wrap;html=1;" vertex="1" parent="NGAGrTrnH160TQQsXjLs-76">
          <mxGeometry y="150" width="160" height="30" as="geometry" />
        </mxCell>
      </root>
    </mxGraphModel>
  </diagram>
</mxfile>
